<svg xmlns="http://www.w3.org/2000/svg" xmlns:v="https://svgstorm.com"
viewBox = "0 0 600 600"
width="600"
height="600">
<g fill="None" fill-opacity="0.0" stroke="#000000" stroke-opacity="0.00" stroke-width="0.3"><path d="
M 0.00 600.00 
L 600.00 600.00
L 600.00 0.00
L 0.00 0.00
L 0.00 600.00
M 239.00 135.00 
C 265.22 132.88 293.34 133.05 320.00 134.00 C 346.66 134.95 376.40 130.41 402.00 135.00
C 411.46 136.70 416.31 139.23 423.00 145.00
C 424.53 146.32 425.75 147.49 427.00 149.00
C 430.75 153.54 435.53 163.65 436.00 169.00
C 436.25 171.84 436.26 175.16 436.00 178.00
C 431.83 195.55 420.18 209.56 399.00 213.00
C 385.70 215.16 371.07 213.18 357.00 214.00 C 342.93 214.82 326.94 212.55 313.00 214.00 C 299.06 215.45 283.02 210.50 270.00 215.00
C 269.55 215.15 268.49 214.92 268.00 215.00
C 263.61 215.76 258.68 219.31 258.00 224.00
C 257.83 225.17 257.86 226.82 258.00 228.00
C 258.56 232.55 262.92 237.48 267.00 239.00
C 292.07 239.69 325.84 243.24 351.00 241.00 C 376.16 238.76 395.98 250.21 400.99 275.01 C 406.00 299.81 383.39 317.18 365.00 320.00
C 349.49 322.38 331.64 319.15 316.00 321.00 C 300.36 322.85 281.54 316.56 267.00 322.00
C 263.71 325.94 255.14 330.99 258.00 338.00 C 260.86 345.01 265.34 348.94 272.00 350.00
C 274.80 349.42 277.16 349.16 280.00 349.00
C 287.61 348.56 295.38 349.00 303.00 349.00
C 307.33 349.00 311.67 349.00 316.00 349.00
C 317.33 349.00 318.67 349.00 320.00 349.00
C 332.33 349.00 344.67 349.00 357.00 349.00
C 363.33 349.00 369.67 349.00 376.00 349.00
C 376.50 349.00 377.50 349.00 378.00 349.00
C 383.77 349.00 389.97 349.28 395.00 350.00
C 407.95 351.85 417.09 355.15 426.00 366.00
C 427.19 367.44 428.91 368.37 430.00 370.00
C 432.99 374.49 433.69 378.99 435.00 384.00
C 435.06 384.24 435.98 384.66 436.00 385.00
C 436.18 388.43 436.22 390.93 436.00 394.00
C 435.17 405.60 425.42 415.65 415.00 423.00
C 413.64 423.96 413.76 424.37 412.00 425.00
C 407.96 426.45 402.44 427.48 399.00 427.00
C 398.05 426.87 396.96 427.00 396.00 427.00
C 393.65 427.52 390.96 428.00 388.00 428.00
C 386.00 428.00 384.00 428.00 382.00 428.00
C 378.67 428.00 375.33 428.00 372.00 428.00
C 368.00 428.00 364.00 428.00 360.00 428.00
C 357.00 428.00 354.00 428.00 351.00 428.00
C 346.33 428.00 341.67 428.00 337.00 428.00
C 336.50 428.00 336.00 428.00 336.00 428.00
C 332.00 428.00 328.00 428.00 324.00 428.00
C 320.00 428.00 316.00 428.00 312.00 428.00
C 309.33 428.00 306.67 428.00 304.00 428.00
C 301.33 428.00 298.67 428.00 296.00 428.00
C 293.33 428.00 290.67 428.00 288.00 428.00
C 285.33 428.00 282.67 428.00 280.00 428.00
C 277.33 428.00 274.67 428.00 272.00 428.00
C 271.50 428.00 271.00 428.00 271.00 428.00
C 268.00 428.00 265.00 428.00 262.00 428.00
C 256.14 428.00 250.54 427.54 245.00 427.00
C 203.86 422.97 171.07 394.96 166.00 353.00
C 163.64 333.49 165.30 310.89 165.00 290.00
C 164.88 281.81 165.00 271.88 165.00 263.00
C 165.00 244.90 163.43 226.02 165.00 208.00
C 166.08 195.64 171.05 175.27 182.00 165.00
C 182.06 163.67 183.69 162.38 182.00 161.00
C 183.28 160.47 183.86 161.97 185.00 162.00
C 190.41 154.85 199.63 146.60 207.70 143.70 C 215.76 140.79 230.77 131.42 239.00 135.00
M 407.00 272.00 
C 407.58 272.05 408.25 274.18 406.87 273.92 C 405.48 273.65 406.11 271.92 407.00 272.00
M 404.00 273.00 
C 404.74 273.74 403.18 272.18 404.00 273.00
M 403.00 277.00 
C 403.74 277.74 402.18 276.18 403.00 277.00
M 404.00 282.00 
C 404.74 282.74 403.18 281.18 404.00 282.00
M 404.00 285.00 
C 404.74 285.74 403.18 284.18 404.00 285.00
M 406.00 287.00 
C 406.74 287.74 405.18 286.18 406.00 287.00
M 404.00 293.00 
C 404.74 293.74 403.18 292.18 404.00 293.00
M 408.00 293.00 
C 408.74 293.74 407.18 292.18 408.00 293.00 Z"/>
</g>
<g fill="None" fill-opacity="0.0" stroke="#54A935" stroke-opacity="0.99" stroke-width="0.3"><path d="
M 185.00 162.00 
C 184.38 162.83 183.70 164.36 183.00 165.00
C 186.13 162.95 188.48 178.08 190.92 182.08 C 193.37 186.08 196.86 194.94 200.75 199.25 C 204.64 203.55 208.24 209.69 213.25 213.75 C 218.26 217.82 222.75 221.97 228.25 225.75 C 233.74 229.54 240.10 231.60 246.22 234.78 C 252.35 237.95 260.97 238.83 267.00 239.00
C 262.92 237.48 258.56 232.55 258.00 228.00
C 256.78 224.88 256.48 227.25 258.00 224.00
C 258.68 219.31 263.61 215.76 268.00 215.00
C 269.12 214.25 268.16 212.48 271.00 213.00
C 271.48 213.09 272.00 213.00 272.00 213.00
C 279.22 207.66 293.63 213.81 303.00 212.00 C 312.37 210.19 324.95 212.96 335.00 212.00 C 345.05 211.04 356.68 212.75 367.00 212.00 C 377.32 211.25 389.42 212.59 399.00 213.00
C 420.18 209.56 431.83 195.55 436.00 178.00
C 436.00 178.04 435.00 178.00 435.00 178.00
C 433.47 176.52 433.46 167.97 435.00 169.00
C 435.35 169.23 436.00 169.00 436.00 169.00
C 435.53 163.65 430.75 153.54 427.00 149.00
C 426.36 148.50 423.42 145.54 423.00 145.00
C 416.31 139.23 411.46 136.70 402.00 135.00
C 376.17 135.75 348.61 137.71 322.00 136.00 C 295.39 134.29 266.43 139.81 240.00 136.00
C 239.65 135.95 239.26 135.11 239.00 135.00
C 230.77 131.42 215.76 140.79 207.70 143.70 C 199.63 146.60 190.41 154.85 185.00 162.00 Z"/>
</g>
<g fill="None" fill-opacity="0.0" stroke="#539F39" stroke-opacity="0.08" stroke-width="0.3"><path d="
M 239.00 135.00 
C 239.26 135.11 239.65 135.95 240.00 136.00
C 256.19 131.15 275.52 136.57 293.00 135.00 C 310.48 133.43 329.16 135.81 347.00 135.00 C 364.84 134.19 384.04 135.61 402.00 135.00
C 376.40 130.41 346.66 134.95 320.00 134.00 C 293.34 133.05 265.22 132.88 239.00 135.00 Z"/>
</g>
<g fill="None" fill-opacity="0.0" stroke="#42892B" stroke-opacity="0.76" stroke-width="0.3"><path d="
M 240.00 136.00 
C 266.43 139.81 295.39 134.29 322.00 136.00 C 348.61 137.71 376.17 135.75 402.00 135.00
C 384.04 135.61 364.84 134.19 347.00 135.00 C 329.16 135.81 310.48 133.43 293.00 135.00 C 275.52 136.57 256.19 131.15 240.00 136.00 Z"/>
</g>
<g fill="None" fill-opacity="0.0" stroke="#48A12F" stroke-opacity="0.42" stroke-width="0.3"><path d="
M 427.00 149.00 
C 425.75 147.49 424.53 146.32 423.00 145.00
C 423.42 145.54 426.36 148.50 427.00 149.00 Z"/>
</g>
<g fill="None" fill-opacity="0.0" stroke="#4DA321" stroke-opacity="0.02" stroke-width="0.3"><path d="
M 182.00 165.00 
C 182.27 164.75 183.00 165.00 183.00 165.00
C 183.70 164.36 184.38 162.83 185.00 162.00
C 183.86 161.97 183.28 160.47 182.00 161.00
C 183.69 162.38 182.06 163.67 182.00 165.00 Z"/>
</g>
<g fill="None" fill-opacity="0.0" stroke="#8FCD3C" stroke-opacity="0.98" stroke-width="0.3"><path d="
M 183.00 165.00 
C 183.00 165.00 182.27 164.75 182.00 165.00
C 171.05 175.27 166.08 195.64 165.00 208.00
C 166.15 214.22 168.29 224.46 167.00 233.00 C 165.71 241.54 168.69 251.49 167.00 260.00
C 174.76 303.32 229.23 321.48 268.00 320.00
C 299.55 318.80 333.90 317.23 365.00 320.00
C 383.39 317.18 406.00 299.81 400.99 275.01 C 395.98 250.21 376.16 238.76 351.00 241.00 C 325.84 243.24 292.07 239.69 267.00 239.00
C 260.97 238.83 252.35 237.95 246.22 234.78 C 240.10 231.60 233.74 229.54 228.25 225.75 C 222.75 221.97 218.26 217.82 213.25 213.75 C 208.24 209.69 204.64 203.55 200.75 199.25 C 196.86 194.94 193.37 186.08 190.92 182.08 C 188.48 178.08 186.13 162.95 183.00 165.00 Z"/>
</g>
<g fill="None" fill-opacity="0.0" stroke="#41892A" stroke-opacity="0.69" stroke-width="0.3"><path d="
M 435.00 178.00 
C 434.74 175.16 434.74 171.84 435.00 169.00
C 433.46 167.97 433.47 176.52 435.00 178.00 Z"/>
</g>
<g fill="None" fill-opacity="0.0" stroke="#4C9B45" stroke-opacity="0.03" stroke-width="0.3"><path d="
M 435.00 178.00 
C 435.00 178.00 436.00 178.04 436.00 178.00
C 436.26 175.16 436.25 171.84 436.00 169.00
C 436.00 169.00 435.35 169.23 435.00 169.00
C 434.74 171.84 434.74 175.16 435.00 178.00 Z"/>
</g>
<g fill="None" fill-opacity="0.0" stroke="#85BF4B" stroke-opacity="0.45" stroke-width="0.3"><path d="
M 165.00 263.00 
C 165.00 262.96 166.00 263.00 166.00 263.00
C 166.21 262.67 166.90 260.52 167.00 260.00
C 168.69 251.49 165.71 241.54 167.00 233.00 C 168.29 224.46 166.15 214.22 165.00 208.00
C 163.43 226.02 165.00 244.90 165.00 263.00 Z"/>
</g>
<g fill="None" fill-opacity="0.0" stroke="#4F8D3B" stroke-opacity="0.95" stroke-width="0.3"><path d="
M 272.00 213.00 
C 314.33 212.99 356.67 213.01 399.00 213.00
C 389.42 212.59 377.32 211.25 367.00 212.00 C 356.68 212.75 345.05 211.04 335.00 212.00 C 324.95 212.96 312.37 210.19 303.00 212.00 C 293.63 213.81 279.22 207.66 272.00 213.00 Z"/>
</g>
<g fill="None" fill-opacity="0.0" stroke="#538C25" stroke-opacity="0.46" stroke-width="0.3"><path d="
M 268.00 215.00 
C 268.49 214.92 269.55 215.15 270.00 215.00
C 270.35 214.74 270.75 213.12 271.00 213.00
C 268.16 212.48 269.12 214.25 268.00 215.00 Z"/>
</g>
<g fill="None" fill-opacity="0.0" stroke="#56A53C" stroke-opacity="0.25" stroke-width="0.3"><path d="
M 270.00 215.00 
C 283.02 210.50 299.06 215.45 313.00 214.00 C 326.94 212.55 342.93 214.82 357.00 214.00 C 371.07 213.18 385.70 215.16 399.00 213.00
C 356.67 213.01 314.33 212.99 272.00 213.00
C 272.00 213.00 271.48 213.09 271.00 213.00
C 270.75 213.12 270.35 214.74 270.00 215.00 Z"/>
</g>
<g fill="None" fill-opacity="0.0" stroke="#529B39" stroke-opacity="0.44" stroke-width="0.3"><path d="
M 258.00 228.00 
C 257.86 226.82 257.83 225.17 258.00 224.00
C 256.48 227.25 256.78 224.88 258.00 228.00 Z"/>
</g>
<g fill="None" fill-opacity="0.0" stroke="#49BFD2" stroke-opacity="0.98" stroke-width="0.3"><path d="
M 166.00 263.00 
C 165.89 269.34 167.00 277.88 167.00 285.00
C 167.00 287.00 167.00 289.00 167.00 291.00
C 175.13 339.67 233.16 363.30 276.00 351.00
C 273.68 351.15 271.33 350.89 269.00 351.00
C 269.26 349.61 271.05 350.22 272.00 350.00
C 265.34 348.94 260.86 345.01 258.00 338.00 C 255.14 330.99 263.71 325.94 267.00 322.00
C 267.17 321.80 267.91 320.03 268.00 320.00
C 229.23 321.48 174.76 303.32 167.00 260.00
C 166.90 260.52 166.21 262.67 166.00 263.00 Z"/>
</g>
<g fill="None" fill-opacity="0.0" stroke="#4FB7B6" stroke-opacity="0.11" stroke-width="0.3"><path d="
M 165.00 290.00 
C 165.18 290.24 166.00 290.00 166.00 290.00
C 166.00 288.33 166.00 286.67 166.00 285.00
C 166.00 277.77 166.65 270.20 166.00 263.00
C 166.00 263.00 165.00 262.96 165.00 263.00
C 165.00 271.88 164.88 281.81 165.00 290.00 Z"/>
</g>
<g fill="None" fill-opacity="0.0" stroke="#45A8B5" stroke-opacity="0.85" stroke-width="0.3"><path d="
M 166.00 285.00 
C 166.05 284.85 167.00 285.00 167.00 285.00
C 167.00 277.88 165.89 269.34 166.00 263.00
C 166.65 270.20 166.00 277.77 166.00 285.00 Z"/>
</g>
<g fill="None" fill-opacity="0.0" stroke="#FEFF00" stroke-opacity="0.00" stroke-width="0.3"><path d="
M 407.00 272.00 
C 406.11 271.92 405.48 273.65 406.87 273.92 C 408.25 274.18 407.58 272.05 407.00 272.00 Z"/>
</g>
<g fill="None" fill-opacity="0.0" stroke="#FEFF00" stroke-opacity="0.00" stroke-width="0.3"><path d="
M 404.00 273.00 
C 403.18 272.18 404.74 273.74 404.00 273.00 Z"/>
</g>
<g fill="None" fill-opacity="0.0" stroke="#FEFF00" stroke-opacity="0.00" stroke-width="0.3"><path d="
M 403.00 277.00 
C 402.18 276.18 403.74 277.74 403.00 277.00 Z"/>
</g>
<g fill="None" fill-opacity="0.0" stroke="#FEFF00" stroke-opacity="0.00" stroke-width="0.3"><path d="
M 404.00 282.00 
C 403.18 281.18 404.74 282.74 404.00 282.00 Z"/>
</g>
<g fill="None" fill-opacity="0.0" stroke="#1E85AB" stroke-opacity="0.82" stroke-width="0.3"><path d="
M 166.00 290.00 
C 166.00 311.00 166.00 332.00 166.00 353.00
C 167.52 333.18 167.00 311.55 167.00 291.00
C 167.00 289.00 167.00 287.00 167.00 285.00
C 167.00 285.00 166.05 284.85 166.00 285.00
C 166.00 286.67 166.00 288.33 166.00 290.00 Z"/>
</g>
<g fill="None" fill-opacity="0.0" stroke="#FEFF00" stroke-opacity="0.00" stroke-width="0.3"><path d="
M 404.00 285.00 
C 403.18 284.18 404.74 285.74 404.00 285.00 Z"/>
</g>
<g fill="None" fill-opacity="0.0" stroke="#FEFF00" stroke-opacity="0.00" stroke-width="0.3"><path d="
M 406.00 287.00 
C 405.18 286.18 406.74 287.74 406.00 287.00 Z"/>
</g>
<g fill="None" fill-opacity="0.0" stroke="#2F9BBA" stroke-opacity="0.09" stroke-width="0.3"><path d="
M 166.00 353.00 
C 166.00 332.00 166.00 311.00 166.00 290.00
C 166.00 290.00 165.18 290.24 165.00 290.00
C 165.30 310.89 163.64 333.49 166.00 353.00 Z"/>
</g>
<g fill="None" fill-opacity="0.0" stroke="#1C92C9" stroke-opacity="0.99" stroke-width="0.3"><path d="
M 166.00 353.00 
C 171.07 394.96 203.86 422.97 245.00 427.00
C 247.97 426.51 255.87 425.58 262.00 426.00 C 268.13 426.42 275.55 425.82 282.00 426.00 C 288.45 426.18 295.37 425.95 302.00 426.00 C 308.63 426.05 316.36 426.03 323.00 426.00 C 329.64 425.97 336.49 426.13 343.00 426.00 C 349.51 425.87 356.72 426.33 363.00 426.00 C 369.28 425.67 377.20 426.74 383.00 426.00 C 388.80 425.26 399.67 427.16 399.00 427.00
C 402.44 427.48 407.96 426.45 412.00 425.00
C 412.61 424.66 414.65 423.14 415.00 423.00
C 425.42 415.65 435.17 405.60 436.00 394.00
C 435.90 394.20 435.00 394.00 435.00 394.00
C 432.35 391.44 434.93 386.44 435.00 384.00
C 433.69 378.99 432.99 374.49 430.00 370.00
C 428.41 368.33 426.67 367.33 426.00 366.00
C 417.09 355.15 407.95 351.85 395.00 350.00
C 356.96 352.24 316.81 351.00 278.00 351.00
C 277.50 351.00 276.50 350.97 276.00 351.00
C 233.16 363.30 175.13 339.67 167.00 291.00
C 167.00 311.55 167.52 333.18 166.00 353.00 Z"/>
</g>
<g fill="None" fill-opacity="0.0" stroke="#FEFF00" stroke-opacity="0.00" stroke-width="0.3"><path d="
M 404.00 293.00 
C 403.18 292.18 404.74 293.74 404.00 293.00 Z"/>
</g>
<g fill="None" fill-opacity="0.0" stroke="#FEFF00" stroke-opacity="0.00" stroke-width="0.3"><path d="
M 408.00 293.00 
C 407.18 292.18 408.74 293.74 408.00 293.00 Z"/>
</g>
<g fill="None" fill-opacity="0.0" stroke="#84BA3F" stroke-opacity="0.43" stroke-width="0.3"><path d="
M 268.00 320.00 
C 267.91 320.03 267.17 321.80 267.00 322.00
C 281.54 316.56 300.36 322.85 316.00 321.00 C 331.64 319.15 349.49 322.38 365.00 320.00
C 333.90 317.23 299.55 318.80 268.00 320.00 Z"/>
</g>
<g fill="None" fill-opacity="0.0" stroke="#34B4CB" stroke-opacity="0.47" stroke-width="0.3"><path d="
M 272.00 350.00 
C 271.05 350.22 269.26 349.61 269.00 351.00
C 271.33 350.89 273.68 351.15 276.00 351.00
C 276.50 350.97 277.50 351.00 278.00 351.00
C 278.77 350.67 278.79 350.15 280.00 350.00
C 280.24 349.80 280.00 349.00 280.00 349.00
C 277.16 349.16 274.80 349.42 272.00 350.00 Z"/>
</g>
<g fill="None" fill-opacity="0.0" stroke="#3A8BC5" stroke-opacity="0.02" stroke-width="0.3"><path d="
M 280.00 350.00 
C 287.41 349.09 295.53 350.00 303.00 350.00
C 302.96 350.00 303.00 349.00 303.00 349.00
C 295.38 349.00 287.61 348.56 280.00 349.00
C 280.00 349.00 280.24 349.80 280.00 350.00 Z"/>
</g>
<g fill="None" fill-opacity="0.0" stroke="#009C9C" stroke-opacity="0.01" stroke-width="0.3"><path d="
M 303.00 350.00 
C 307.47 350.00 312.25 349.51 316.00 349.00
C 311.67 349.00 307.33 349.00 303.00 349.00
C 303.00 349.00 302.96 350.00 303.00 350.00 Z"/>
</g>
<g fill="None" fill-opacity="0.0" stroke="#0F7CAD" stroke-opacity="0.63" stroke-width="0.3"><path d="
M 303.00 350.00 
C 295.53 350.00 287.41 349.09 280.00 350.00
C 278.79 350.15 278.77 350.67 278.00 351.00
C 316.81 351.00 356.96 352.24 395.00 350.00
C 389.41 349.55 382.79 351.04 378.00 349.00
C 377.50 349.00 376.50 349.00 376.00 349.00
C 370.92 351.16 362.92 350.00 357.00 350.00
C 344.77 350.00 331.43 350.56 320.00 349.00
C 318.67 349.00 317.33 349.00 316.00 349.00
C 312.25 349.51 307.47 350.00 303.00 350.00 Z"/>
</g>
<g fill="None" fill-opacity="0.0" stroke="#00A5A5" stroke-opacity="0.01" stroke-width="0.3"><path d="
M 357.00 350.00 
C 356.96 350.00 357.00 349.00 357.00 349.00
C 344.67 349.00 332.33 349.00 320.00 349.00
C 331.43 350.56 344.77 350.00 357.00 350.00 Z"/>
</g>
<g fill="None" fill-opacity="0.0" stroke="#407FBF" stroke-opacity="0.02" stroke-width="0.3"><path d="
M 357.00 350.00 
C 362.92 350.00 370.92 351.16 376.00 349.00
C 369.67 349.00 363.33 349.00 357.00 349.00
C 357.00 349.00 356.96 350.00 357.00 350.00 Z"/>
</g>
<g fill="None" fill-opacity="0.0" stroke="#218EB6" stroke-opacity="0.02" stroke-width="0.3"><path d="
M 395.00 350.00 
C 389.97 349.28 383.77 349.00 378.00 349.00
C 382.79 351.04 389.41 349.55 395.00 350.00 Z"/>
</g>
<g fill="None" fill-opacity="0.0" stroke="#0C78A3" stroke-opacity="0.48" stroke-width="0.3"><path d="
M 430.00 370.00 
C 428.91 368.37 427.19 367.44 426.00 366.00
C 426.67 367.33 428.41 368.33 430.00 370.00 Z"/>
</g>
<g fill="None" fill-opacity="0.0" stroke="#005F9E" stroke-opacity="0.64" stroke-width="0.3"><path d="
M 435.00 394.00 
C 434.70 390.71 435.22 387.59 436.00 385.00
C 435.98 384.66 435.06 384.24 435.00 384.00
C 434.93 386.44 432.35 391.44 435.00 394.00 Z"/>
</g>
<g fill="None" fill-opacity="0.0" stroke="#0674B8" stroke-opacity="0.04" stroke-width="0.3"><path d="
M 435.00 394.00 
C 435.00 394.00 435.90 394.20 436.00 394.00
C 436.22 390.93 436.18 388.43 436.00 385.00
C 435.22 387.59 434.70 390.71 435.00 394.00 Z"/>
</g>
<g fill="None" fill-opacity="0.0" stroke="#0995AF" stroke-opacity="0.24" stroke-width="0.3"><path d="
M 412.00 425.00 
C 413.76 424.37 413.64 423.96 415.00 423.00
C 414.65 423.14 412.61 424.66 412.00 425.00 Z"/>
</g>
<g fill="None" fill-opacity="0.0" stroke="#0F86B8" stroke-opacity="0.55" stroke-width="0.3"><path d="
M 245.00 427.00 
C 250.54 427.54 256.14 428.00 262.00 428.00
C 264.78 427.73 268.12 425.87 271.00 428.00
C 271.00 428.00 271.50 428.00 272.00 428.00
C 274.05 426.48 277.27 427.00 280.00 427.00
C 282.67 427.00 285.33 427.00 288.00 427.00
C 290.67 427.00 293.33 427.00 296.00 427.00
C 298.67 427.00 301.33 427.00 304.00 427.00
C 306.77 427.00 309.96 427.80 312.00 428.00
C 316.00 428.00 320.00 428.00 324.00 428.00
C 327.33 427.68 332.69 425.55 336.00 428.00
C 336.00 428.00 336.50 428.00 337.00 428.00
C 340.01 425.77 347.05 427.00 351.00 427.00
C 354.00 427.00 357.00 427.00 360.00 427.00
C 364.00 427.00 368.00 427.00 372.00 427.00
C 375.33 427.00 378.67 427.00 382.00 427.00
C 384.00 427.00 386.00 427.00 388.00 427.00
C 390.67 427.00 393.33 427.00 396.00 427.00
C 396.96 427.00 398.05 426.87 399.00 427.00
C 399.67 427.16 388.80 425.26 383.00 426.00 C 377.20 426.74 369.28 425.67 363.00 426.00 C 356.72 426.33 349.51 425.87 343.00 426.00 C 336.49 426.13 329.64 425.97 323.00 426.00 C 316.36 426.03 308.63 426.05 302.00 426.00 C 295.37 425.95 288.45 426.18 282.00 426.00 C 275.55 425.82 268.13 426.42 262.00 426.00 C 255.87 425.58 247.97 426.51 245.00 427.00 Z"/>
</g>
<g fill="None" fill-opacity="0.0" stroke="#007FFF" stroke-opacity="0.01" stroke-width="0.3"><path d="
M 262.00 428.00 
C 265.00 428.00 268.00 428.00 271.00 428.00
C 268.12 425.87 264.78 427.73 262.00 428.00 Z"/>
</g>
<g fill="None" fill-opacity="0.0" stroke="#007FFF" stroke-opacity="0.01" stroke-width="0.3"><path d="
M 272.00 428.00 
C 274.67 428.00 277.33 428.00 280.00 428.00
C 279.96 428.00 280.00 427.00 280.00 427.00
C 277.27 427.00 274.05 426.48 272.00 428.00 Z"/>
</g>
<g fill="None" fill-opacity="0.0" stroke="#00AAAA" stroke-opacity="0.01" stroke-width="0.3"><path d="
M 280.00 428.00 
C 282.67 428.00 285.33 428.00 288.00 428.00
C 287.96 428.00 288.00 427.00 288.00 427.00
C 285.33 427.00 282.67 427.00 280.00 427.00
C 280.00 427.00 279.96 428.00 280.00 428.00 Z"/>
</g>
<g fill="None" fill-opacity="0.0" stroke="#007FFF" stroke-opacity="0.01" stroke-width="0.3"><path d="
M 288.00 428.00 
C 290.67 428.00 293.33 428.00 296.00 428.00
C 295.96 428.00 296.00 427.00 296.00 427.00
C 293.33 427.00 290.67 427.00 288.00 427.00
C 288.00 427.00 287.96 428.00 288.00 428.00 Z"/>
</g>
<g fill="None" fill-opacity="0.0" stroke="#00AAAA" stroke-opacity="0.01" stroke-width="0.3"><path d="
M 296.00 428.00 
C 298.67 428.00 301.33 428.00 304.00 428.00
C 303.96 428.00 304.00 427.00 304.00 427.00
C 301.33 427.00 298.67 427.00 296.00 427.00
C 296.00 427.00 295.96 428.00 296.00 428.00 Z"/>
</g>
<g fill="None" fill-opacity="0.0" stroke="#007FFF" stroke-opacity="0.01" stroke-width="0.3"><path d="
M 304.00 428.00 
C 306.67 428.00 309.33 428.00 312.00 428.00
C 309.96 427.80 306.77 427.00 304.00 427.00
C 304.00 427.00 303.96 428.00 304.00 428.00 Z"/>
</g>
<g fill="None" fill-opacity="0.0" stroke="#007FFF" stroke-opacity="0.01" stroke-width="0.3"><path d="
M 324.00 428.00 
C 328.00 428.00 332.00 428.00 336.00 428.00
C 332.69 425.55 327.33 427.68 324.00 428.00 Z"/>
</g>
<g fill="None" fill-opacity="0.0" stroke="#007FFF" stroke-opacity="0.01" stroke-width="0.3"><path d="
M 337.00 428.00 
C 341.67 428.00 346.33 428.00 351.00 428.00
C 350.96 428.00 351.00 427.00 351.00 427.00
C 347.05 427.00 340.01 425.77 337.00 428.00 Z"/>
</g>
<g fill="None" fill-opacity="0.0" stroke="#00AAAA" stroke-opacity="0.01" stroke-width="0.3"><path d="
M 351.00 428.00 
C 354.00 428.00 357.00 428.00 360.00 428.00
C 359.96 428.00 360.00 427.00 360.00 427.00
C 357.00 427.00 354.00 427.00 351.00 427.00
C 351.00 427.00 350.96 428.00 351.00 428.00 Z"/>
</g>
<g fill="None" fill-opacity="0.0" stroke="#008282" stroke-opacity="0.01" stroke-width="0.3"><path d="
M 360.00 428.00 
C 364.00 428.00 368.00 428.00 372.00 428.00
C 371.96 428.00 372.00 427.00 372.00 427.00
C 368.00 427.00 364.00 427.00 360.00 427.00
C 360.00 427.00 359.96 428.00 360.00 428.00 Z"/>
</g>
<g fill="None" fill-opacity="0.0" stroke="#00AAAA" stroke-opacity="0.01" stroke-width="0.3"><path d="
M 372.00 428.00 
C 375.33 428.00 378.67 428.00 382.00 428.00
C 381.90 427.98 382.00 427.00 382.00 427.00
C 378.67 427.00 375.33 427.00 372.00 427.00
C 372.00 427.00 371.96 428.00 372.00 428.00 Z"/>
</g>
<g fill="None" fill-opacity="0.0" stroke="#007FBF" stroke-opacity="0.02" stroke-width="0.3"><path d="
M 382.00 428.00 
C 384.00 428.00 386.00 428.00 388.00 428.00
C 388.10 427.98 388.00 427.00 388.00 427.00
C 386.00 427.00 384.00 427.00 382.00 427.00
C 382.00 427.00 381.90 427.98 382.00 428.00 Z"/>
</g>
<g fill="None" fill-opacity="0.0" stroke="#009F9F" stroke-opacity="0.01" stroke-width="0.3"><path d="
M 388.00 428.00 
C 390.96 428.00 393.65 427.52 396.00 427.00
C 393.33 427.00 390.67 427.00 388.00 427.00
C 388.00 427.00 388.10 427.98 388.00 428.00 Z"/>
</g>
<g fill="#000000" fill-opacity="0.00" stroke="None">
<path d="
M 0.00 600.00 
L 600.00 600.00
L 600.00 0.00
L 0.00 0.00
L 0.00 600.00
M 239.00 135.00 
C 265.22 132.88 293.34 133.05 320.00 134.00 C 346.66 134.95 376.40 130.41 402.00 135.00
C 411.46 136.70 416.31 139.23 423.00 145.00
C 424.53 146.32 425.75 147.49 427.00 149.00
C 430.75 153.54 435.53 163.65 436.00 169.00
C 436.25 171.84 436.26 175.16 436.00 178.00
C 431.83 195.55 420.18 209.56 399.00 213.00
C 385.70 215.16 371.07 213.18 357.00 214.00 C 342.93 214.82 326.94 212.55 313.00 214.00 C 299.06 215.45 283.02 210.50 270.00 215.00
C 269.55 215.15 268.49 214.92 268.00 215.00
C 263.61 215.76 258.68 219.31 258.00 224.00
C 257.83 225.17 257.86 226.82 258.00 228.00
C 258.56 232.55 262.92 237.48 267.00 239.00
C 292.07 239.69 325.84 243.24 351.00 241.00 C 376.16 238.76 395.98 250.21 400.99 275.01 C 406.00 299.81 383.39 317.18 365.00 320.00
C 349.49 322.38 331.64 319.15 316.00 321.00 C 300.36 322.85 281.54 316.56 267.00 322.00
C 263.71 325.94 255.14 330.99 258.00 338.00 C 260.86 345.01 265.34 348.94 272.00 350.00
C 274.80 349.42 277.16 349.16 280.00 349.00
C 287.61 348.56 295.38 349.00 303.00 349.00
C 307.33 349.00 311.67 349.00 316.00 349.00
C 317.33 349.00 318.67 349.00 320.00 349.00
C 332.33 349.00 344.67 349.00 357.00 349.00
C 363.33 349.00 369.67 349.00 376.00 349.00
C 376.50 349.00 377.50 349.00 378.00 349.00
C 383.77 349.00 389.97 349.28 395.00 350.00
C 407.95 351.85 417.09 355.15 426.00 366.00
C 427.19 367.44 428.91 368.37 430.00 370.00
C 432.99 374.49 433.69 378.99 435.00 384.00
C 435.06 384.24 435.98 384.66 436.00 385.00
C 436.18 388.43 436.22 390.93 436.00 394.00
C 435.17 405.60 425.42 415.65 415.00 423.00
C 413.64 423.96 413.76 424.37 412.00 425.00
C 407.96 426.45 402.44 427.48 399.00 427.00
C 398.05 426.87 396.96 427.00 396.00 427.00
C 393.65 427.52 390.96 428.00 388.00 428.00
C 386.00 428.00 384.00 428.00 382.00 428.00
C 378.67 428.00 375.33 428.00 372.00 428.00
C 368.00 428.00 364.00 428.00 360.00 428.00
C 357.00 428.00 354.00 428.00 351.00 428.00
C 346.33 428.00 341.67 428.00 337.00 428.00
C 336.50 428.00 336.00 428.00 336.00 428.00
C 332.00 428.00 328.00 428.00 324.00 428.00
C 320.00 428.00 316.00 428.00 312.00 428.00
C 309.33 428.00 306.67 428.00 304.00 428.00
C 301.33 428.00 298.67 428.00 296.00 428.00
C 293.33 428.00 290.67 428.00 288.00 428.00
C 285.33 428.00 282.67 428.00 280.00 428.00
C 277.33 428.00 274.67 428.00 272.00 428.00
C 271.50 428.00 271.00 428.00 271.00 428.00
C 268.00 428.00 265.00 428.00 262.00 428.00
C 256.14 428.00 250.54 427.54 245.00 427.00
C 203.86 422.97 171.07 394.96 166.00 353.00
C 163.64 333.49 165.30 310.89 165.00 290.00
C 164.88 281.81 165.00 271.88 165.00 263.00
C 165.00 244.90 163.43 226.02 165.00 208.00
C 166.08 195.64 171.05 175.27 182.00 165.00
C 182.06 163.67 183.69 162.38 182.00 161.00
C 183.28 160.47 183.86 161.97 185.00 162.00
C 190.41 154.85 199.63 146.60 207.70 143.70 C 215.76 140.79 230.77 131.42 239.00 135.00
M 407.00 272.00 
C 407.58 272.05 408.25 274.18 406.87 273.92 C 405.48 273.65 406.11 271.92 407.00 272.00
M 404.00 273.00 
C 404.74 273.74 403.18 272.18 404.00 273.00
M 403.00 277.00 
C 403.74 277.74 402.18 276.18 403.00 277.00
M 404.00 282.00 
C 404.74 282.74 403.18 281.18 404.00 282.00
M 404.00 285.00 
C 404.74 285.74 403.18 284.18 404.00 285.00
M 406.00 287.00 
C 406.74 287.74 405.18 286.18 406.00 287.00
M 404.00 293.00 
C 404.74 293.74 403.18 292.18 404.00 293.00
M 408.00 293.00 
C 408.74 293.74 407.18 292.18 408.00 293.00 Z"/>
</g>
<g fill="#54A935" fill-opacity="0.99" stroke="None">
<path d="
M 185.00 162.00 
C 184.38 162.83 183.70 164.36 183.00 165.00
C 186.13 162.95 188.48 178.08 190.92 182.08 C 193.37 186.08 196.86 194.94 200.75 199.25 C 204.64 203.55 208.24 209.69 213.25 213.75 C 218.26 217.82 222.75 221.97 228.25 225.75 C 233.74 229.54 240.10 231.60 246.22 234.78 C 252.35 237.95 260.97 238.83 267.00 239.00
C 262.92 237.48 258.56 232.55 258.00 228.00
C 256.78 224.88 256.48 227.25 258.00 224.00
C 258.68 219.31 263.61 215.76 268.00 215.00
C 269.12 214.25 268.16 212.48 271.00 213.00
C 271.48 213.09 272.00 213.00 272.00 213.00
C 279.22 207.66 293.63 213.81 303.00 212.00 C 312.37 210.19 324.95 212.96 335.00 212.00 C 345.05 211.04 356.68 212.75 367.00 212.00 C 377.32 211.25 389.42 212.59 399.00 213.00
C 420.18 209.56 431.83 195.55 436.00 178.00
C 436.00 178.04 435.00 178.00 435.00 178.00
C 433.47 176.52 433.46 167.97 435.00 169.00
C 435.35 169.23 436.00 169.00 436.00 169.00
C 435.53 163.65 430.75 153.54 427.00 149.00
C 426.36 148.50 423.42 145.54 423.00 145.00
C 416.31 139.23 411.46 136.70 402.00 135.00
C 376.17 135.75 348.61 137.71 322.00 136.00 C 295.39 134.29 266.43 139.81 240.00 136.00
C 239.65 135.95 239.26 135.11 239.00 135.00
C 230.77 131.42 215.76 140.79 207.70 143.70 C 199.63 146.60 190.41 154.85 185.00 162.00 Z"/>
</g>
<g fill="#539F39" fill-opacity="0.08" stroke="None">
<path d="
M 239.00 135.00 
C 239.26 135.11 239.65 135.95 240.00 136.00
C 256.19 131.15 275.52 136.57 293.00 135.00 C 310.48 133.43 329.16 135.81 347.00 135.00 C 364.84 134.19 384.04 135.61 402.00 135.00
C 376.40 130.41 346.66 134.95 320.00 134.00 C 293.34 133.05 265.22 132.88 239.00 135.00 Z"/>
</g>
<g fill="#42892B" fill-opacity="0.76" stroke="None">
<path d="
M 240.00 136.00 
C 266.43 139.81 295.39 134.29 322.00 136.00 C 348.61 137.71 376.17 135.75 402.00 135.00
C 384.04 135.61 364.84 134.19 347.00 135.00 C 329.16 135.81 310.48 133.43 293.00 135.00 C 275.52 136.57 256.19 131.15 240.00 136.00 Z"/>
</g>
<g fill="#48A12F" fill-opacity="0.42" stroke="None">
<path d="
M 427.00 149.00 
C 425.75 147.49 424.53 146.32 423.00 145.00
C 423.42 145.54 426.36 148.50 427.00 149.00 Z"/>
</g>
<g fill="#4DA321" fill-opacity="0.02" stroke="None">
<path d="
M 182.00 165.00 
C 182.27 164.75 183.00 165.00 183.00 165.00
C 183.70 164.36 184.38 162.83 185.00 162.00
C 183.86 161.97 183.28 160.47 182.00 161.00
C 183.69 162.38 182.06 163.67 182.00 165.00 Z"/>
</g>
<g fill="#8FCD3C" fill-opacity="0.98" stroke="None">
<path d="
M 183.00 165.00 
C 183.00 165.00 182.27 164.75 182.00 165.00
C 171.05 175.27 166.08 195.64 165.00 208.00
C 166.15 214.22 168.29 224.46 167.00 233.00 C 165.71 241.54 168.69 251.49 167.00 260.00
C 174.76 303.32 229.23 321.48 268.00 320.00
C 299.55 318.80 333.90 317.23 365.00 320.00
C 383.39 317.18 406.00 299.81 400.99 275.01 C 395.98 250.21 376.16 238.76 351.00 241.00 C 325.84 243.24 292.07 239.69 267.00 239.00
C 260.97 238.83 252.35 237.95 246.22 234.78 C 240.10 231.60 233.74 229.54 228.25 225.75 C 222.75 221.97 218.26 217.82 213.25 213.75 C 208.24 209.69 204.64 203.55 200.75 199.25 C 196.86 194.94 193.37 186.08 190.92 182.08 C 188.48 178.08 186.13 162.95 183.00 165.00 Z"/>
</g>
<g fill="#41892A" fill-opacity="0.69" stroke="None">
<path d="
M 435.00 178.00 
C 434.74 175.16 434.74 171.84 435.00 169.00
C 433.46 167.97 433.47 176.52 435.00 178.00 Z"/>
</g>
<g fill="#4C9B45" fill-opacity="0.03" stroke="None">
<path d="
M 435.00 178.00 
C 435.00 178.00 436.00 178.04 436.00 178.00
C 436.26 175.16 436.25 171.84 436.00 169.00
C 436.00 169.00 435.35 169.23 435.00 169.00
C 434.74 171.84 434.74 175.16 435.00 178.00 Z"/>
</g>
<g fill="#85BF4B" fill-opacity="0.45" stroke="None">
<path d="
M 165.00 263.00 
C 165.00 262.96 166.00 263.00 166.00 263.00
C 166.21 262.67 166.90 260.52 167.00 260.00
C 168.69 251.49 165.71 241.54 167.00 233.00 C 168.29 224.46 166.15 214.22 165.00 208.00
C 163.43 226.02 165.00 244.90 165.00 263.00 Z"/>
</g>
<g fill="#4F8D3B" fill-opacity="0.95" stroke="None">
<path d="
M 272.00 213.00 
C 314.33 212.99 356.67 213.01 399.00 213.00
C 389.42 212.59 377.32 211.25 367.00 212.00 C 356.68 212.75 345.05 211.04 335.00 212.00 C 324.95 212.96 312.37 210.19 303.00 212.00 C 293.63 213.81 279.22 207.66 272.00 213.00 Z"/>
</g>
<g fill="#538C25" fill-opacity="0.46" stroke="None">
<path d="
M 268.00 215.00 
C 268.49 214.92 269.55 215.15 270.00 215.00
C 270.35 214.74 270.75 213.12 271.00 213.00
C 268.16 212.48 269.12 214.25 268.00 215.00 Z"/>
</g>
<g fill="#56A53C" fill-opacity="0.25" stroke="None">
<path d="
M 270.00 215.00 
C 283.02 210.50 299.06 215.45 313.00 214.00 C 326.94 212.55 342.93 214.82 357.00 214.00 C 371.07 213.18 385.70 215.16 399.00 213.00
C 356.67 213.01 314.33 212.99 272.00 213.00
C 272.00 213.00 271.48 213.09 271.00 213.00
C 270.75 213.12 270.35 214.74 270.00 215.00 Z"/>
</g>
<g fill="#529B39" fill-opacity="0.44" stroke="None">
<path d="
M 258.00 228.00 
C 257.86 226.82 257.83 225.17 258.00 224.00
C 256.48 227.25 256.78 224.88 258.00 228.00 Z"/>
</g>
<g fill="#49BFD2" fill-opacity="0.98" stroke="None">
<path d="
M 166.00 263.00 
C 165.89 269.34 167.00 277.88 167.00 285.00
C 167.00 287.00 167.00 289.00 167.00 291.00
C 175.13 339.67 233.16 363.30 276.00 351.00
C 273.68 351.15 271.33 350.89 269.00 351.00
C 269.26 349.61 271.05 350.22 272.00 350.00
C 265.34 348.94 260.86 345.01 258.00 338.00 C 255.14 330.99 263.71 325.94 267.00 322.00
C 267.17 321.80 267.91 320.03 268.00 320.00
C 229.23 321.48 174.76 303.32 167.00 260.00
C 166.90 260.52 166.21 262.67 166.00 263.00 Z"/>
</g>
<g fill="#4FB7B6" fill-opacity="0.11" stroke="None">
<path d="
M 165.00 290.00 
C 165.18 290.24 166.00 290.00 166.00 290.00
C 166.00 288.33 166.00 286.67 166.00 285.00
C 166.00 277.77 166.65 270.20 166.00 263.00
C 166.00 263.00 165.00 262.96 165.00 263.00
C 165.00 271.88 164.88 281.81 165.00 290.00 Z"/>
</g>
<g fill="#45A8B5" fill-opacity="0.85" stroke="None">
<path d="
M 166.00 285.00 
C 166.05 284.85 167.00 285.00 167.00 285.00
C 167.00 277.88 165.89 269.34 166.00 263.00
C 166.65 270.20 166.00 277.77 166.00 285.00 Z"/>
</g>
<g fill="#FEFF00" fill-opacity="0.00" stroke="None">
<path d="
M 407.00 272.00 
C 406.11 271.92 405.48 273.65 406.87 273.92 C 408.25 274.18 407.58 272.05 407.00 272.00 Z"/>
</g>
<g fill="#FEFF00" fill-opacity="0.00" stroke="None">
<path d="
M 404.00 273.00 
C 403.18 272.18 404.74 273.74 404.00 273.00 Z"/>
</g>
<g fill="#FEFF00" fill-opacity="0.00" stroke="None">
<path d="
M 403.00 277.00 
C 402.18 276.18 403.74 277.74 403.00 277.00 Z"/>
</g>
<g fill="#FEFF00" fill-opacity="0.00" stroke="None">
<path d="
M 404.00 282.00 
C 403.18 281.18 404.74 282.74 404.00 282.00 Z"/>
</g>
<g fill="#1E85AB" fill-opacity="0.82" stroke="None">
<path d="
M 166.00 290.00 
C 166.00 311.00 166.00 332.00 166.00 353.00
C 167.52 333.18 167.00 311.55 167.00 291.00
C 167.00 289.00 167.00 287.00 167.00 285.00
C 167.00 285.00 166.05 284.85 166.00 285.00
C 166.00 286.67 166.00 288.33 166.00 290.00 Z"/>
</g>
<g fill="#FEFF00" fill-opacity="0.00" stroke="None">
<path d="
M 404.00 285.00 
C 403.18 284.18 404.74 285.74 404.00 285.00 Z"/>
</g>
<g fill="#FEFF00" fill-opacity="0.00" stroke="None">
<path d="
M 406.00 287.00 
C 405.18 286.18 406.74 287.74 406.00 287.00 Z"/>
</g>
<g fill="#2F9BBA" fill-opacity="0.09" stroke="None">
<path d="
M 166.00 353.00 
C 166.00 332.00 166.00 311.00 166.00 290.00
C 166.00 290.00 165.18 290.24 165.00 290.00
C 165.30 310.89 163.64 333.49 166.00 353.00 Z"/>
</g>
<g fill="#1C92C9" fill-opacity="0.99" stroke="None">
<path d="
M 166.00 353.00 
C 171.07 394.96 203.86 422.97 245.00 427.00
C 247.97 426.51 255.87 425.58 262.00 426.00 C 268.13 426.42 275.55 425.82 282.00 426.00 C 288.45 426.18 295.37 425.95 302.00 426.00 C 308.63 426.05 316.36 426.03 323.00 426.00 C 329.64 425.97 336.49 426.13 343.00 426.00 C 349.51 425.87 356.72 426.33 363.00 426.00 C 369.28 425.67 377.20 426.74 383.00 426.00 C 388.80 425.26 399.67 427.16 399.00 427.00
C 402.44 427.48 407.96 426.45 412.00 425.00
C 412.61 424.66 414.65 423.14 415.00 423.00
C 425.42 415.65 435.17 405.60 436.00 394.00
C 435.90 394.20 435.00 394.00 435.00 394.00
C 432.35 391.44 434.93 386.44 435.00 384.00
C 433.69 378.99 432.99 374.49 430.00 370.00
C 428.41 368.33 426.67 367.33 426.00 366.00
C 417.09 355.15 407.95 351.85 395.00 350.00
C 356.96 352.24 316.81 351.00 278.00 351.00
C 277.50 351.00 276.50 350.97 276.00 351.00
C 233.16 363.30 175.13 339.67 167.00 291.00
C 167.00 311.55 167.52 333.18 166.00 353.00 Z"/>
</g>
<g fill="#FEFF00" fill-opacity="0.00" stroke="None">
<path d="
M 404.00 293.00 
C 403.18 292.18 404.74 293.74 404.00 293.00 Z"/>
</g>
<g fill="#FEFF00" fill-opacity="0.00" stroke="None">
<path d="
M 408.00 293.00 
C 407.18 292.18 408.74 293.74 408.00 293.00 Z"/>
</g>
<g fill="#84BA3F" fill-opacity="0.43" stroke="None">
<path d="
M 268.00 320.00 
C 267.91 320.03 267.17 321.80 267.00 322.00
C 281.54 316.56 300.36 322.85 316.00 321.00 C 331.64 319.15 349.49 322.38 365.00 320.00
C 333.90 317.23 299.55 318.80 268.00 320.00 Z"/>
</g>
<g fill="#34B4CB" fill-opacity="0.47" stroke="None">
<path d="
M 272.00 350.00 
C 271.05 350.22 269.26 349.61 269.00 351.00
C 271.33 350.89 273.68 351.15 276.00 351.00
C 276.50 350.97 277.50 351.00 278.00 351.00
C 278.77 350.67 278.79 350.15 280.00 350.00
C 280.24 349.80 280.00 349.00 280.00 349.00
C 277.16 349.16 274.80 349.42 272.00 350.00 Z"/>
</g>
<g fill="#3A8BC5" fill-opacity="0.02" stroke="None">
<path d="
M 280.00 350.00 
C 287.41 349.09 295.53 350.00 303.00 350.00
C 302.96 350.00 303.00 349.00 303.00 349.00
C 295.38 349.00 287.61 348.56 280.00 349.00
C 280.00 349.00 280.24 349.80 280.00 350.00 Z"/>
</g>
<g fill="#009C9C" fill-opacity="0.01" stroke="None">
<path d="
M 303.00 350.00 
C 307.47 350.00 312.25 349.51 316.00 349.00
C 311.67 349.00 307.33 349.00 303.00 349.00
C 303.00 349.00 302.96 350.00 303.00 350.00 Z"/>
</g>
<g fill="#0F7CAD" fill-opacity="0.63" stroke="None">
<path d="
M 303.00 350.00 
C 295.53 350.00 287.41 349.09 280.00 350.00
C 278.79 350.15 278.77 350.67 278.00 351.00
C 316.81 351.00 356.96 352.24 395.00 350.00
C 389.41 349.55 382.79 351.04 378.00 349.00
C 377.50 349.00 376.50 349.00 376.00 349.00
C 370.92 351.16 362.92 350.00 357.00 350.00
C 344.77 350.00 331.43 350.56 320.00 349.00
C 318.67 349.00 317.33 349.00 316.00 349.00
C 312.25 349.51 307.47 350.00 303.00 350.00 Z"/>
</g>
<g fill="#00A5A5" fill-opacity="0.01" stroke="None">
<path d="
M 357.00 350.00 
C 356.96 350.00 357.00 349.00 357.00 349.00
C 344.67 349.00 332.33 349.00 320.00 349.00
C 331.43 350.56 344.77 350.00 357.00 350.00 Z"/>
</g>
<g fill="#407FBF" fill-opacity="0.02" stroke="None">
<path d="
M 357.00 350.00 
C 362.92 350.00 370.92 351.16 376.00 349.00
C 369.67 349.00 363.33 349.00 357.00 349.00
C 357.00 349.00 356.96 350.00 357.00 350.00 Z"/>
</g>
<g fill="#218EB6" fill-opacity="0.02" stroke="None">
<path d="
M 395.00 350.00 
C 389.97 349.28 383.77 349.00 378.00 349.00
C 382.79 351.04 389.41 349.55 395.00 350.00 Z"/>
</g>
<g fill="#0C78A3" fill-opacity="0.48" stroke="None">
<path d="
M 430.00 370.00 
C 428.91 368.37 427.19 367.44 426.00 366.00
C 426.67 367.33 428.41 368.33 430.00 370.00 Z"/>
</g>
<g fill="#005F9E" fill-opacity="0.64" stroke="None">
<path d="
M 435.00 394.00 
C 434.70 390.71 435.22 387.59 436.00 385.00
C 435.98 384.66 435.06 384.24 435.00 384.00
C 434.93 386.44 432.35 391.44 435.00 394.00 Z"/>
</g>
<g fill="#0674B8" fill-opacity="0.04" stroke="None">
<path d="
M 435.00 394.00 
C 435.00 394.00 435.90 394.20 436.00 394.00
C 436.22 390.93 436.18 388.43 436.00 385.00
C 435.22 387.59 434.70 390.71 435.00 394.00 Z"/>
</g>
<g fill="#0995AF" fill-opacity="0.24" stroke="None">
<path d="
M 412.00 425.00 
C 413.76 424.37 413.64 423.96 415.00 423.00
C 414.65 423.14 412.61 424.66 412.00 425.00 Z"/>
</g>
<g fill="#0F86B8" fill-opacity="0.55" stroke="None">
<path d="
M 245.00 427.00 
C 250.54 427.54 256.14 428.00 262.00 428.00
C 264.78 427.73 268.12 425.87 271.00 428.00
C 271.00 428.00 271.50 428.00 272.00 428.00
C 274.05 426.48 277.27 427.00 280.00 427.00
C 282.67 427.00 285.33 427.00 288.00 427.00
C 290.67 427.00 293.33 427.00 296.00 427.00
C 298.67 427.00 301.33 427.00 304.00 427.00
C 306.77 427.00 309.96 427.80 312.00 428.00
C 316.00 428.00 320.00 428.00 324.00 428.00
C 327.33 427.68 332.69 425.55 336.00 428.00
C 336.00 428.00 336.50 428.00 337.00 428.00
C 340.01 425.77 347.05 427.00 351.00 427.00
C 354.00 427.00 357.00 427.00 360.00 427.00
C 364.00 427.00 368.00 427.00 372.00 427.00
C 375.33 427.00 378.67 427.00 382.00 427.00
C 384.00 427.00 386.00 427.00 388.00 427.00
C 390.67 427.00 393.33 427.00 396.00 427.00
C 396.96 427.00 398.05 426.87 399.00 427.00
C 399.67 427.16 388.80 425.26 383.00 426.00 C 377.20 426.74 369.28 425.67 363.00 426.00 C 356.72 426.33 349.51 425.87 343.00 426.00 C 336.49 426.13 329.64 425.97 323.00 426.00 C 316.36 426.03 308.63 426.05 302.00 426.00 C 295.37 425.95 288.45 426.18 282.00 426.00 C 275.55 425.82 268.13 426.42 262.00 426.00 C 255.87 425.58 247.97 426.51 245.00 427.00 Z"/>
</g>
<g fill="#007FFF" fill-opacity="0.01" stroke="None">
<path d="
M 262.00 428.00 
C 265.00 428.00 268.00 428.00 271.00 428.00
C 268.12 425.87 264.78 427.73 262.00 428.00 Z"/>
</g>
<g fill="#007FFF" fill-opacity="0.01" stroke="None">
<path d="
M 272.00 428.00 
C 274.67 428.00 277.33 428.00 280.00 428.00
C 279.96 428.00 280.00 427.00 280.00 427.00
C 277.27 427.00 274.05 426.48 272.00 428.00 Z"/>
</g>
<g fill="#00AAAA" fill-opacity="0.01" stroke="None">
<path d="
M 280.00 428.00 
C 282.67 428.00 285.33 428.00 288.00 428.00
C 287.96 428.00 288.00 427.00 288.00 427.00
C 285.33 427.00 282.67 427.00 280.00 427.00
C 280.00 427.00 279.96 428.00 280.00 428.00 Z"/>
</g>
<g fill="#007FFF" fill-opacity="0.01" stroke="None">
<path d="
M 288.00 428.00 
C 290.67 428.00 293.33 428.00 296.00 428.00
C 295.96 428.00 296.00 427.00 296.00 427.00
C 293.33 427.00 290.67 427.00 288.00 427.00
C 288.00 427.00 287.96 428.00 288.00 428.00 Z"/>
</g>
<g fill="#00AAAA" fill-opacity="0.01" stroke="None">
<path d="
M 296.00 428.00 
C 298.67 428.00 301.33 428.00 304.00 428.00
C 303.96 428.00 304.00 427.00 304.00 427.00
C 301.33 427.00 298.67 427.00 296.00 427.00
C 296.00 427.00 295.96 428.00 296.00 428.00 Z"/>
</g>
<g fill="#007FFF" fill-opacity="0.01" stroke="None">
<path d="
M 304.00 428.00 
C 306.67 428.00 309.33 428.00 312.00 428.00
C 309.96 427.80 306.77 427.00 304.00 427.00
C 304.00 427.00 303.96 428.00 304.00 428.00 Z"/>
</g>
<g fill="#007FFF" fill-opacity="0.01" stroke="None">
<path d="
M 324.00 428.00 
C 328.00 428.00 332.00 428.00 336.00 428.00
C 332.69 425.55 327.33 427.68 324.00 428.00 Z"/>
</g>
<g fill="#007FFF" fill-opacity="0.01" stroke="None">
<path d="
M 337.00 428.00 
C 341.67 428.00 346.33 428.00 351.00 428.00
C 350.96 428.00 351.00 427.00 351.00 427.00
C 347.05 427.00 340.01 425.77 337.00 428.00 Z"/>
</g>
<g fill="#00AAAA" fill-opacity="0.01" stroke="None">
<path d="
M 351.00 428.00 
C 354.00 428.00 357.00 428.00 360.00 428.00
C 359.96 428.00 360.00 427.00 360.00 427.00
C 357.00 427.00 354.00 427.00 351.00 427.00
C 351.00 427.00 350.96 428.00 351.00 428.00 Z"/>
</g>
<g fill="#008282" fill-opacity="0.01" stroke="None">
<path d="
M 360.00 428.00 
C 364.00 428.00 368.00 428.00 372.00 428.00
C 371.96 428.00 372.00 427.00 372.00 427.00
C 368.00 427.00 364.00 427.00 360.00 427.00
C 360.00 427.00 359.96 428.00 360.00 428.00 Z"/>
</g>
<g fill="#00AAAA" fill-opacity="0.01" stroke="None">
<path d="
M 372.00 428.00 
C 375.33 428.00 378.67 428.00 382.00 428.00
C 381.90 427.98 382.00 427.00 382.00 427.00
C 378.67 427.00 375.33 427.00 372.00 427.00
C 372.00 427.00 371.96 428.00 372.00 428.00 Z"/>
</g>
<g fill="#007FBF" fill-opacity="0.02" stroke="None">
<path d="
M 382.00 428.00 
C 384.00 428.00 386.00 428.00 388.00 428.00
C 388.10 427.98 388.00 427.00 388.00 427.00
C 386.00 427.00 384.00 427.00 382.00 427.00
C 382.00 427.00 381.90 427.98 382.00 428.00 Z"/>
</g>
<g fill="#009F9F" fill-opacity="0.01" stroke="None">
<path d="
M 388.00 428.00 
C 390.96 428.00 393.65 427.52 396.00 427.00
C 393.33 427.00 390.67 427.00 388.00 427.00
C 388.00 427.00 388.10 427.98 388.00 428.00 Z"/>
</g>
</svg>